<svg width="136" height="41" viewBox="0 0 136 41" fill="none" xmlns="http://www.w3.org/2000/svg">
<path d="M80.8962 13.4298L78.8721 9.62298L75.2515 11.5232L73.2275 7.71645L69.6083 9.61828L67.5828 5.81149L63.9636 7.71488L61.9382 3.90809L58.319 5.80679L56.2921 2L52.6757 3.90026L45 31.458L54.3115 34.599C54.6295 33.4818 55.2581 32.5072 56.1059 31.8169C56.9537 31.1266 57.9765 30.7567 59.0254 30.7608C61.7503 30.7608 63.9594 33.2 63.9594 36.2094L63.958 36.3191C63.9804 36.8125 63.9286 37.3123 63.7926 37.801L73.2625 41L80.8962 13.4282" fill="#C4242B"/>
<path d="M8.07373 11.993C9.54373 11.993 10.6637 12.294 11.4337 12.896C12.2037 13.498 12.5887 14.317 12.5887 15.353V15.815C12.5887 17.285 11.9447 18.3 10.6567 18.86C11.4407 19.028 12.0497 19.392 12.4837 19.952C12.9317 20.498 13.1557 21.177 13.1557 21.989V22.451C13.1557 23.613 12.7427 24.537 11.9167 25.223C11.1047 25.909 9.87273 26.252 8.22073 26.252C7.28273 26.252 6.00173 26.21 4.37773 26.126V12.077C5.66573 12.021 6.89773 11.993 8.07373 11.993ZM7.80073 13.526C7.29673 13.526 6.75073 13.547 6.16273 13.589V18.293H8.22073C9.06073 18.293 9.69773 18.09 10.1317 17.684C10.5797 17.278 10.8037 16.711 10.8037 15.983V15.626C10.8037 14.926 10.5657 14.401 10.0897 14.051C9.61373 13.701 8.85073 13.526 7.80073 13.526ZM6.16273 19.742V24.572C6.62473 24.614 7.00273 24.649 7.29673 24.677C7.60473 24.691 7.91273 24.698 8.22073 24.698C9.29873 24.698 10.0897 24.495 10.5937 24.089C11.1117 23.669 11.3707 23.088 11.3707 22.346V21.905C11.3707 20.463 10.3627 19.742 8.34673 19.742H6.16273ZM18.874 15.5C20.12 15.5 21.044 15.836 21.646 16.508C22.262 17.166 22.57 18.104 22.57 19.322V22.43C22.57 23.648 22.262 24.593 21.646 25.265C21.044 25.923 20.12 26.252 18.874 26.252C17.628 26.252 16.697 25.923 16.081 25.265C15.479 24.593 15.178 23.648 15.178 22.43V19.322C15.178 18.104 15.479 17.166 16.081 16.508C16.697 15.836 17.628 15.5 18.874 15.5ZM18.874 16.991C18.272 16.991 17.803 17.18 17.467 17.558C17.131 17.936 16.963 18.475 16.963 19.175V22.577C16.963 23.277 17.131 23.816 17.467 24.194C17.803 24.572 18.272 24.761 18.874 24.761C19.476 24.761 19.945 24.572 20.281 24.194C20.617 23.816 20.785 23.277 20.785 22.577V19.154C20.785 18.454 20.617 17.922 20.281 17.558C19.945 17.18 19.476 16.991 18.874 16.991ZM28.7792 15.5C30.0252 15.5 30.9492 15.836 31.5512 16.508C32.1672 17.166 32.4752 18.104 32.4752 19.322V22.43C32.4752 23.648 32.1672 24.593 31.5512 25.265C30.9492 25.923 30.0252 26.252 28.7792 26.252C27.5332 26.252 26.6022 25.923 25.9862 25.265C25.3842 24.593 25.0832 23.648 25.0832 22.43V19.322C25.0832 18.104 25.3842 17.166 25.9862 16.508C26.6022 15.836 27.5332 15.5 28.7792 15.5ZM28.7792 16.991C28.1772 16.991 27.7082 17.18 27.3722 17.558C27.0362 17.936 26.8682 18.475 26.8682 19.175V22.577C26.8682 23.277 27.0362 23.816 27.3722 24.194C27.7082 24.572 28.1772 24.761 28.7792 24.761C29.3812 24.761 29.8502 24.572 30.1862 24.194C30.5222 23.816 30.6902 23.277 30.6902 22.577V19.154C30.6902 18.454 30.5222 17.922 30.1862 17.558C29.8502 17.18 29.3812 16.991 28.7792 16.991ZM36.9835 11.657V20.246L40.3435 15.752H42.3385L38.8525 20.246L42.5905 26H40.4485L36.9835 20.498V26H35.1985V11.657H36.9835ZM61.5563 15.5C62.4523 15.5 63.1383 15.808 63.6143 16.424C64.0903 17.026 64.3283 17.887 64.3283 19.007V26H62.5433V19.259C62.5433 17.859 62.0953 17.159 61.1993 17.159C60.8073 17.159 60.4013 17.313 59.9813 17.621C59.5753 17.929 59.2183 18.349 58.9103 18.881V26H57.1253V19.259C57.1253 17.859 56.6773 17.159 55.7813 17.159C55.3893 17.159 54.9833 17.313 54.5633 17.621C54.1573 17.929 53.8003 18.349 53.4923 18.881V26H51.7073V15.752H53.3873V17.285C53.7513 16.711 54.1713 16.27 54.6473 15.962C55.1233 15.654 55.6203 15.5 56.1383 15.5C56.7823 15.5 57.3213 15.668 57.7553 16.004C58.1893 16.326 58.5043 16.802 58.7003 17.432C59.0783 16.802 59.5123 16.326 60.0023 16.004C60.4923 15.668 61.0103 15.5 61.5563 15.5ZM74.7487 15.752L70.0447 29.885H68.2597L69.6037 26H68.9317L66.0127 15.752H67.9657L70.1707 24.719L72.9007 15.752H74.7487ZM93.9621 26L93.8571 14.702L90.9381 24.572H88.7331L85.8141 14.702L85.7091 26H83.9661L84.0921 12.245H86.7381L89.8461 22.976L92.9331 12.245H95.5791L95.7051 26H93.9621ZM102.136 15.5C103.382 15.5 104.306 15.836 104.908 16.508C105.524 17.166 105.832 18.104 105.832 19.322V22.43C105.832 23.648 105.524 24.593 104.908 25.265C104.306 25.923 103.382 26.252 102.136 26.252C100.89 26.252 99.9587 25.923 99.3427 25.265C98.7407 24.593 98.4397 23.648 98.4397 22.43V19.322C98.4397 18.104 98.7407 17.166 99.3427 16.508C99.9587 15.836 100.89 15.5 102.136 15.5ZM102.136 16.991C101.534 16.991 101.065 17.18 100.729 17.558C100.393 17.936 100.225 18.475 100.225 19.175V22.577C100.225 23.277 100.393 23.816 100.729 24.194C101.065 24.572 101.534 24.761 102.136 24.761C102.738 24.761 103.207 24.572 103.543 24.194C103.879 23.816 104.047 23.277 104.047 22.577V19.154C104.047 18.454 103.879 17.922 103.543 17.558C103.207 17.18 102.738 16.991 102.136 16.991ZM115.885 15.752L112.714 26H110.383L107.233 15.752H109.123L111.559 24.698L113.995 15.752H115.885ZM119.343 15.752V26H117.558V15.752H119.343ZM118.44 11.615C118.818 11.615 119.105 11.699 119.301 11.867C119.511 12.035 119.616 12.273 119.616 12.581V13.19C119.616 13.498 119.511 13.736 119.301 13.904C119.105 14.058 118.818 14.135 118.44 14.135C118.076 14.135 117.789 14.058 117.579 13.904C117.383 13.736 117.285 13.498 117.285 13.19V12.581C117.285 12.273 117.383 12.035 117.579 11.867C117.789 11.699 118.076 11.615 118.44 11.615ZM125.635 15.5C126.811 15.5 127.707 15.822 128.323 16.466C128.939 17.11 129.247 18.041 129.247 19.259V21.422H123.85V22.661C123.85 23.375 124.018 23.893 124.354 24.215C124.704 24.523 125.25 24.677 125.992 24.677C126.72 24.677 127.63 24.565 128.722 24.341L128.764 25.895C127.462 26.133 126.531 26.252 125.971 26.252C124.585 26.252 123.584 25.951 122.968 25.349C122.366 24.747 122.065 23.816 122.065 22.556V19.259C122.065 18.041 122.359 17.11 122.947 16.466C123.549 15.822 124.445 15.5 125.635 15.5ZM125.635 16.991C125.089 16.991 124.655 17.166 124.333 17.516C124.011 17.852 123.85 18.342 123.85 18.986V19.994H127.462V19.049C127.462 18.377 127.294 17.866 126.958 17.516C126.636 17.166 126.195 16.991 125.635 16.991Z" fill="white"/>
</svg>
